<svg width="192" height="73" viewBox="0 0 192 73" xmlns="http://www.w3.org/2000/svg">
  <path d="M2.243 6.616v32.386h32.81v1.88H2.242V72H.315V4.688h39.203v1.928H2.243zM50.05 72V.552h1.88V72h-1.88zm40.429-1.927c3.604 0 6.933-.627 9.989-1.88 3.055-1.254 5.601-3.04 7.638-5.359l1.363 1.363c-2.319 2.507-5.116 4.434-8.39 5.782C97.805 71.326 94.272 72 90.48 72c-4.544 0-8.626-1.073-12.245-3.22-3.62-2.146-6.479-5.116-8.578-8.907-2.1-3.792-3.15-8.054-3.15-12.786 0-4.763 1.05-9.04 3.15-12.832 2.1-3.792 4.959-6.746 8.578-8.86 3.62-2.116 7.701-3.174 12.245-3.174s8.57 1.058 12.08 3.173 6.229 5.069 8.156 8.86c1.927 3.793 2.89 8.07 2.89 12.833H68.435c0 4.419.948 8.375 2.844 11.869 1.896 3.494 4.513 6.22 7.85 8.179 3.338 1.959 7.121 2.938 11.352 2.938zm0-45.924c6.11 0 11.062 1.927 14.854 5.781 3.791 3.855 5.907 8.931 6.345 15.23H68.575c.251-4.105 1.356-7.748 3.314-10.929 1.959-3.18 4.552-5.656 7.78-7.427 3.227-1.77 6.831-2.655 10.811-2.655zm47.857-1.41l35.924 35.924a2 2 0 0 1 .585 1.386l.14 9.909a2 2 0 0 1-2.028 2.028l-9.909-.14a2 2 0 0 1-1.386-.585L125.74 35.337a2 2 0 0 1-.585-1.386l-.079-5.577-.06-4.332a2 2 0 0 1 2.027-2.028l4.332.061 5.577.079a2 2 0 0 1 1.386.585zm30.066 18.455l-12.597-12.597 6.14-6.14c.187-.187.44-.294.705-.298L173.968 22A1.018 1.018 0 0 1 175 23.032l-.16 11.317c-.003.265-.11.518-.298.706l-6.139 6.14zM144.288 65.31l-6.233 6.233c-.188.188-.44.295-.706.299L126.032 72A1.018 1.018 0 0 1 125 70.968l.16-11.317c.003-.265.11-.518.298-.706l6.233-6.233 12.597 12.597zM187.974 72V22.221h1.928V72h-1.928zm.94-66.607c.721 0 1.324.243 1.81.729s.729 1.073.729 1.763c0 .626-.243 1.198-.729 1.715-.486.517-1.089.776-1.81.776-.626 0-1.198-.25-1.715-.752-.517-.501-.776-1.081-.776-1.74 0-.72.259-1.315.776-1.785s1.089-.706 1.715-.706z" fill="#643C95" fill-rule="evenodd"/>
</svg>
